<?xml version="1.0" encoding="UTF-8"?>
<!DOCTYPE svg PUBLIC "-//W3C//DTD SVG 1.1//EN" "http://www.w3.org/Graphics/SVG/1.1/DTD/svg11.dtd">
<!-- Creator: CorelDRAW 2023 -->
<svg xmlns="http://www.w3.org/2000/svg" xml:space="preserve" width="1080px" height="1080px" version="1.1" style="shape-rendering:geometricPrecision; text-rendering:geometricPrecision; image-rendering:optimizeQuality; fill-rule:evenodd; clip-rule:evenodd"
viewBox="0 0 1080 939.44"
 xmlns:xlink="http://www.w3.org/1999/xlink"
 xmlns:xodm="http://www.corel.com/coreldraw/odm/2003">
 <defs>
  <style type="text/css">
   <![CDATA[
    .fil3 {fill:#FEFEFE}
    .fil8 {fill:#FFF212}
    .fil7 {fill:#BBD540}
    .fil6 {fill:#40B553}
    .fil2 {fill:#324933}
    .fil4 {fill:#345E3C}
    .fil5 {fill:#109150}
    .fil1 {fill:#324933;fill-rule:nonzero}
    .fil0 {fill:url(#id0)}
   ]]>
  </style>
  <linearGradient id="id0" gradientUnits="userSpaceOnUse" x1="538.08" y1="654.875" x2="544.186" y2="855.147">
   <stop offset="0" style="stop-opacity:1; stop-color:#AFD143"/>
   <stop offset="1" style="stop-opacity:1; stop-color:#FFF212"/>
  </linearGradient>
 </defs>
 <g id="Camada_x0020_1">
  <metadata id="CorelCorpID_0Corel-Layer"/>
  <g id="_2392368974736">
   <path class="fil0" d="M171.926 666.606l-79.948 0 0 24.636 25.602 0 0 68.731 28.889 0 0 -68.731 25.457 0 0 -24.636zm76.385 93.367l0 -24.637 -43.478 0 0 -10.217 42.477 0 0 -24.638 -42.477 0 0 -9.239 43.478 0 0 -24.636 -72.369 0 0 93.367 72.369 0zm57.505 -93.367l-50.915 0 0 93.367 28.89 0 0 -29.395 10.439 0 13.159 29.395 32.896 0 -17.306 -33.036c7.581,-3.639 17.161,-12.178 17.161,-28.276 0,-17.497 -12.014,-32.055 -34.324,-32.055zm-4.434 39.335l-17.591 0 0 -14.699 17.591 0c4.863,0 9.44,2.239 9.44,7.279 0,5.18 -4.577,7.42 -9.44,7.42zm116.573 54.032l0 -24.637 -43.479 0 0 -10.217 42.477 0 0 -24.638 -42.477 0 0 -9.239 43.479 0 0 -24.636 -72.368 0 0 93.367 72.368 0zm43.632 1.679c25.6,0 41.189,-11.898 41.189,-32.475 0,-34.715 -53.06,-27.156 -53.06,-35.974 0,-2.381 1.574,-4.2 7.295,-4.2 9.011,0 19.736,3.08 28.031,9.239l15.447 -20.018c-10.871,-8.678 -24.887,-13.017 -40.476,-13.017 -26.172,0 -39.615,15.116 -39.615,30.935 0,36.814 53.204,27.716 53.204,36.676 0,3.638 -5.149,5.038 -10.585,5.038 -12.872,0 -23.597,-5.319 -30.749,-12.039l-15.018 20.998c10.156,8.959 24.029,14.837 44.337,14.837zm117.002 -123.743l-22.168 0 -17.162 20.158 17.162 0 22.168 -20.158zm-25.601 123.743c29.463,0 52.203,-19.597 52.203,-48.293 0,-28.696 -22.74,-48.293 -52.203,-48.293 -29.46,0 -52.202,19.597 -52.202,48.293 0,28.696 22.742,48.293 52.202,48.293zm0 -24.915c-13.872,0 -22.882,-10.36 -22.882,-23.378 0,-13.017 9.01,-23.375 22.882,-23.375 13.873,0 22.884,10.358 22.884,23.375 0,13.018 -9.011,23.378 -22.884,23.378zm107.134 -70.131l-50.916 0 0 93.367 28.89 0 0 -29.395 22.026 0c22.311,0 34.325,-14.56 34.325,-31.917 0,-17.497 -12.014,-32.055 -34.325,-32.055zm-3.718 39.335l-18.308 0 0 -14.699 18.308 0c4.863,0 8.725,2.38 8.725,7.419 0,4.9 -3.862,7.28 -8.725,7.28zm88.255 55.711c29.461,0 52.202,-19.597 52.202,-48.293 0,-28.696 -22.741,-48.293 -52.202,-48.293 -29.462,0 -52.202,19.597 -52.202,48.293 0,28.696 22.74,48.293 52.202,48.293zm0 -24.915c-13.875,0 -22.884,-10.36 -22.884,-23.378 0,-13.017 9.009,-23.375 22.884,-23.375 13.873,0 22.883,10.358 22.883,23.375 0,13.018 -9.01,23.378 -22.883,23.378zm85.106 -70.131l-28.89 0 0 93.367 65.074 0 0 -24.637 -36.184 0 0 -68.73zm70.379 0l-28.891 0 0 93.367 28.891 0 0 -93.367zm46.207 95.046c25.6,0 41.188,-11.898 41.188,-32.475 0,-34.715 -53.06,-27.156 -53.06,-35.974 0,-2.381 1.575,-4.2 7.295,-4.2 9.011,0 19.737,3.08 28.032,9.239l15.445 -20.018c-10.87,-8.678 -24.885,-13.017 -40.475,-13.017 -26.172,0 -39.616,15.116 -39.616,30.935 0,36.814 53.205,27.716 53.205,36.676 0,3.638 -5.149,5.038 -10.585,5.038 -12.87,0 -23.598,-5.319 -30.748,-12.039l-15.018 20.998c10.155,8.959 24.028,14.837 44.337,14.837z"/>
   <path class="fil1" d="M212.153 816.111c0,7.694 4.444,16.243 12.737,16.243 6.326,0 14.018,-10.686 14.018,-10.686 0,0 0.428,10.686 9.661,10.686 8.378,0 24.193,-31.202 27.612,-38.468 0.854,-1.967 -1.454,-2.65 -2.479,-0.685 -2.907,5.814 -17.867,35.049 -23.851,35.049 -6.155,0 6.925,-22.909 6.925,-26.072 0,-3.163 -8.977,-8.719 -8.977,-5.3 0,3.419 -11.626,32.056 -21.627,32.056 -11.711,0 8.205,-42.314 20.259,-42.314 7.609,0 7.352,6.411 7.012,7.181 -0.258,0.683 1.024,1.881 1.795,0 0.855,-1.966 0.427,-12.824 -11.714,-12.824 -15.301,0 -31.371,20.175 -31.371,35.134z"/>
   <path class="fil1" d="M279.869 832.354c19.15,0 35.989,-31.031 39.409,-38.297 0.855,-1.966 -1.453,-2.565 -2.48,-0.684 -2.906,5.898 -18.037,34.108 -35.646,34.108 -14.019,0 5.983,-44.024 18.037,-44.024 4.872,0 0.427,13.335 0.427,13.335 -0.683,1.967 1.625,2.393 2.308,0.342 0.343,-1.197 6.326,-16.157 -3.932,-16.157l0 0c-16.583,0 -33.936,17.098 -33.936,33.254 0,7.694 5.042,18.123 15.813,18.123z"/>
   <path class="fil1" d="M327.497 773.37c6.582,0 11.37,-4.36 11.37,-8.036 0,-3.761 -3.506,-5.898 -7.181,-5.898 -3.933,0 -7.779,13.934 -4.189,13.934zm16.755 19.86c-2.82,5.913 -18.891,35.02 -27.698,35.02 -8.205,0 12.653,-34.848 12.653,-38.88 0,-5.215 -8.292,-11.014 -8.292,-7.01 0,4.017 -15.216,30.731 -15.216,39.393 0,6.412 3.59,10.601 8.633,10.601l0 0c12.909,0 28.98,-31.159 32.4,-38.44 0.939,-1.966 -1.455,-2.564 -2.48,-0.684z"/>
   <path class="fil1" d="M419.834 793.573c-2.907,5.827 -20.09,34.677 -26.072,34.677 -8.21,0 12.65,-34.677 12.65,-38.71 0,-3.59 -4.018,-7.536 -6.496,-8.22 0,0 0,0 -0.086,0 -0.255,-0.086 -0.513,-0.086 -0.684,-0.086 -0.085,0 -0.085,0 -0.085,0 -2.65,0 -18.552,19.875 -26.159,29.635 4.274,-8.563 9.232,-17.382 9.232,-20.887 0,-5.656 -5.643,-9.09 -8.207,-8.748 0,0 -0.086,0 -0.086,0 -2.65,0 -18.634,20.046 -26.242,29.72 4.273,-8.563 9.316,-17.467 9.316,-20.972 0,-7.366 -9.488,-11.398 -9.488,-7.451 0,8.733 -14.959,27.996 -14.959,39.479 0,6.24 4.873,10.344 8.719,10.344 2.65,0 0.513,-3.078 0.513,-5.301 0,-0.512 0.086,-1.196 0.172,-1.795 3.932,-9.16 23.421,-31.515 30.004,-38.453 -3.077,9.674 -14.105,25.346 -14.105,35.205 0,6.24 4.872,10.344 8.72,10.344 2.565,0 0.513,-3.078 0.513,-5.301 0,-0.598 0.084,-1.282 0.17,-2.051 4.017,-8.99 22.226,-30.062 29.322,-37.513 -3.933,9.161 -13.594,27.412 -13.594,34.264 0,6.497 3.678,10.601 8.637,10.601l0 0c9.915,0 27.355,-30.902 30.688,-38.098 0.94,-1.965 -1.454,-2.565 -2.393,-0.683z"/>
   <path class="fil1" d="M409.844 816.111c0,7.694 4.446,16.243 12.737,16.243 6.327,0 14.02,-10.686 14.02,-10.686 0,0 0.428,10.686 9.659,10.686 8.378,0 24.192,-31.202 27.613,-38.468 0.854,-1.967 -1.454,-2.65 -2.48,-0.685 -2.906,5.814 -17.867,35.049 -23.851,35.049 -6.154,0 6.926,-22.909 6.926,-26.072 0,-3.163 -8.976,-8.719 -8.976,-5.3 0,3.419 -11.626,32.056 -21.628,32.056 -11.712,0 8.207,-42.314 20.26,-42.314 7.607,0 7.351,6.411 7.009,7.181 -0.256,0.683 1.025,1.881 1.795,0 0.855,-1.966 0.427,-12.824 -11.71,-12.824 -15.302,0 -31.374,20.175 -31.374,35.134z"/>
   <path class="fil1" d="M563.815 793.544c-2.905,5.813 -20.345,34.706 -28.125,34.706 -8.035,0 25.988,-59.496 25.988,-70.011 0,-3.249 -8.976,-8.719 -8.976,-5.3 0,1.539 -6.154,17.61 -13.848,34.621 -0.598,-3.248 -2.992,-6.411 -9.489,-6.411 -15.302,0 -31.288,20.089 -31.288,35.048 0,7.694 4.445,16.157 12.738,16.157 7.351,0 13.933,-10.686 13.933,-10.686 0,0 0.428,10.686 9.66,10.686 10.259,0 28.467,-30.86 31.887,-38.126 0.855,-1.966 -1.455,-2.564 -2.48,-0.684zm-51.718 35.39c-11.712,0 8.121,-42.144 20.176,-42.144 3.675,0 0.939,6.411 0.597,7.096 -0.17,0.428 1.111,0.94 2.48,1.026 -8.378,17.61 -17.867,34.022 -23.253,34.022z"/>
   <path class="fil1" d="M607.339 793.544c-2.821,5.813 -18.807,33.937 -35.817,33.937 -4.702,0 -5.642,-4.873 -4.275,-11.37 14.959,-1.88 38.639,-34.962 21.03,-34.962l0 0c-16.585,0 -33.853,17.011 -33.853,33.168 0,7.693 5.044,18.037 15.816,18.037 20.687,0 36.159,-30.946 39.578,-38.126 0.855,-1.966 -1.452,-2.65 -2.479,-0.684zm-17.865 -9.318c8.376,0 -9.318,25.646 -21.287,28.38 3.761,-12.48 13.934,-28.38 21.287,-28.38z"/>
   <path class="fil1" d="M660.523 779.695c17.098,0 24.449,-4.957 24.449,-6.411 0,-1.368 -8.89,2.65 -22.568,2.65 -0.257,0 -0.599,0 -0.942,0 3.251,-7.01 5.474,-12.822 5.474,-15.644 0,-5.214 -8.294,-10.942 -8.294,-7.009 0,3.334 -3.676,12.053 -8.292,22.226 -14.532,-1.282 -19.233,-4.275 -19.233,-2.052 0,1.111 6.325,4.188 17.61,5.556 -7.525,16.243 -16.585,34.793 -16.585,40.776 0,7.951 6.753,12.567 10.601,12.567l0 0c15.13,0 32.227,-30.86 35.646,-38.04 0.856,-1.967 -1.538,-2.65 -2.478,-0.77 -2.907,5.899 -20.005,34.706 -30.945,34.706 -9.577,0 5.213,-28.038 14.788,-48.555 0.255,0 0.513,0 0.769,0z"/>
   <path class="fil1" d="M725.504 793.573c-2.82,5.827 -15.9,34.677 -23.678,34.677 -8.121,0 12.65,-34.677 12.65,-38.71 0,-5.214 -8.291,-10.956 -8.291,-7.009 0,1.453 -1.967,5.727 -4.445,11.042 0,0 -24.619,35.874 -28.807,35.874 -6.07,0 15.727,-33.395 15.727,-39.564 0,-7.267 -9.488,-11.299 -9.488,-7.352 0,8.733 -14.959,27.483 -14.959,38.951 0,3.948 4.102,10.872 8.72,10.872 4.274,0 15.557,-15.145 22.652,-25.076 -2.565,5.899 -4.53,11.384 -4.53,14.475 0,4.446 4.36,10.601 8.548,10.601l0 0c11.456,0 24.962,-30.902 28.381,-38.098 0.854,-1.965 -1.454,-2.565 -2.48,-0.683z"/>
   <path class="fil1" d="M781.252 793.544c-2.906,5.813 -20.344,34.706 -28.123,34.706 -8.035,0 25.987,-59.496 25.987,-70.011 0,-3.249 -8.976,-8.719 -8.976,-5.3 0,1.539 -6.154,17.61 -13.848,34.621 -0.599,-3.248 -2.992,-6.411 -9.49,-6.411 -15.301,0 -31.286,20.089 -31.286,35.048 0,7.694 4.446,16.157 12.737,16.157 7.352,0 13.933,-10.686 13.933,-10.686 0,0 0.428,10.686 9.66,10.686 10.259,0 28.465,-30.86 31.886,-38.126 0.855,-1.966 -1.453,-2.564 -2.48,-0.684zm-51.717 35.39c-11.711,0 8.12,-42.144 20.174,-42.144 3.676,0 0.94,6.411 0.598,7.096 -0.17,0.428 1.112,0.94 2.48,1.026 -8.378,17.61 -17.867,34.022 -23.252,34.022z"/>
   <path class="fil1" d="M830.506 793.558c-2.138,4.546 -12.138,19.619 -23.167,22.696 4.445,-7.708 7.351,-17.296 7.351,-26.386 0,-5.214 -1.966,-8.891 -9.829,-8.891 -6.156,0 -11.969,5.215 -15.987,10.957 -1.539,-0.684 -3.335,-1.026 -4.787,-1.026 -2.906,0 -12.054,13.706 -12.054,24.492 0,11.226 7.01,16.954 14.277,16.954 7.009,0 13.848,-5.215 19.064,-12.922 14.702,-1.796 24.96,-19.705 27.355,-24.677 1.025,-2.308 -1.282,-3.762 -2.223,-1.197zm-43.939 35.206c-8.037,0 -4.874,-9.675 -0.856,-18.494 2.906,4.787 8.89,8.563 15.218,9.247 -3.933,5.399 -8.892,9.247 -14.362,9.247zm16.157 -11.897c-17.782,-0.698 2.051,-31.529 6.069,-31.529 5.214,0 1.966,18.678 -6.069,31.529z"/>
   <path class="fil1" d="M858.385 752.256c0,11.369 -22.054,40.775 -22.054,49.409 0,5.812 7.095,11.027 7.095,7.864 0,-10.942 23.935,-42.314 23.935,-49.58 0,-5.813 -8.976,-10.856 -8.976,-7.693zm-25.217 60.95c-1.967,0 -6.838,9.061 -6.838,12.737 0,3.675 8.121,9.061 8.121,4.445 0,-3.847 5.043,-9.319 5.043,-11.797 0,-2.48 -3.163,-5.385 -6.326,-5.385z"/>
   <path class="fil1" d="M139.961 25.786c-2.868,0 -5.486,-0.062 -7.106,-0.062 0,-4.425 0,-9.099 0,-13.961 2.431,-0.062 5.92,-0.125 7.479,-0.125 6.73,0 9.598,1.871 9.598,6.857 0,5.359 -2.555,7.291 -9.971,7.291zm-19.446 -24.493c0.25,6.357 0.313,13.462 0.313,23.372 0,9.971 -0.063,16.639 -0.313,23.37l12.901 0c-0.25,-3.241 -0.375,-7.291 -0.437,-11.904 3.491,0.125 5.734,0.125 9.162,0.125 12.839,0 19.757,-5.92 19.757,-17.575 0,-12.527 -7.168,-17.388 -19.569,-17.388l-21.814 0zm58.614 22.748c0,-4.176 0,-8.476 0,-12.838 2.992,-0.125 7.354,-0.187 9.099,-0.187 5.92,0 8.724,1.183 8.724,6.606 0,4.363 -2.492,6.544 -7.54,6.544 -4.301,-0.062 -8.164,-0.062 -10.283,-0.125zm18.697 5.609c7.79,-1.309 10.907,-5.671 10.907,-13.96 0,-9.474 -6.669,-14.397 -18.075,-14.397l-23.495 0c0.125,6.732 0.187,13.462 0.187,23.372 0,9.971 -0.125,16.578 -0.187,23.37l12.651 0c-0.312,-3.615 -0.499,-8.85 -0.561,-14.833 4.488,-0.062 6.107,-0.062 9.161,-0.062 4.489,0 5.548,1.246 7.603,8.788 1.434,5.484 1.621,6.107 3.616,6.107l11.779 0c-0.748,-1.994 -1.933,-5.734 -3.241,-9.659 -1.994,-5.984 -4.3,-7.667 -10.345,-8.414l0 -0.312zm18.85 -28.357c0.251,5.796 0.251,13.462 0.251,23.372 0,9.971 0,17.263 -0.251,23.37l37.021 0c-0.125,-1.247 -0.125,-3.552 -0.125,-5.048 0,-1.869 0,-4.487 0.125,-5.733 -8.165,0.062 -17.95,0.124 -24.867,0.124l0 -8.476c8.226,0 17.512,0.063 24.243,0.187 0,-2.243 0,-7.478 0.062,-9.597 -6.855,0.186 -16.016,0.186 -24.305,0.186l0 -8.226c6.917,0 16.329,0.062 24.867,0.124 -0.125,-1.183 -0.125,-3.801 -0.125,-5.484 0,-1.558 0.063,-3.739 0.125,-4.799l-37.021 0zm56.994 10.47c6.981,0 15.518,0.063 24.182,0.125 -0.126,-1.558 -0.126,-3.677 -0.126,-5.734 0,-1.62 0.063,-3.552 0.126,-4.861l-36.397 0c0.188,6.357 0.25,13.462 0.25,23.372 0,9.909 -0.125,16.951 -0.25,23.37l12.652 0c-0.187,-4.362 -0.311,-9.784 -0.374,-15.081 8.225,0 16.514,0.062 23.496,0 0,-2.494 0,-7.417 0.124,-9.91 -7.168,0.124 -15.333,0.187 -23.683,0.187l0 -11.468zm30.568 -10.47c0.25,5.796 0.25,13.462 0.25,23.372 0,9.971 0,17.263 -0.25,23.37l37.021 0c-0.125,-1.247 -0.125,-3.552 -0.125,-5.048 0,-1.869 0,-4.487 0.125,-5.733 -8.166,0.062 -17.95,0.124 -24.867,0.124l0 -8.476c8.226,0 17.512,0.063 24.243,0.187 0,-2.243 0,-7.478 0.063,-9.597 -6.857,0.186 -16.018,0.186 -24.306,0.186l0 -8.226c6.917,0 16.329,0.062 24.867,0.124 -0.125,-1.183 -0.125,-3.801 -0.125,-5.484 0,-1.558 0.062,-3.739 0.125,-4.799l-37.021 0zm57.181 46.742c-0.187,-6.855 -0.187,-13.524 -0.187,-23.433 0,-9.972 0,-16.702 0.187,-23.309l-12.402 0c0.187,6.732 0.187,13.399 0.187,23.372 0,9.909 0,16.578 -0.187,23.37l12.402 0zm4.829 -46.742c0.063,1.372 0.063,3.366 0.063,5.298 0,1.683 0,3.926 -0.063,5.359 4.425,-0.062 8.849,-0.124 12.776,-0.124 0,16.453 -0.062,32.657 -0.248,36.272 1.807,-0.187 4.3,-0.187 6.169,-0.187 1.807,0 4.55,0 6.17,0.187 -0.188,-3.678 -0.25,-19.881 -0.25,-36.272 3.926,0 8.351,0.062 12.778,0.124 -0.063,-1.433 -0.063,-3.676 -0.063,-5.359 0,-1.932 0,-3.989 0.063,-5.298l-37.395 0zm73.322 0c0.123,6.669 0.248,19.757 0.248,26.674 0,7.043 -2.618,10.097 -9.348,10.097 -6.917,0 -9.971,-3.054 -9.971,-10.097 0,-6.917 0.062,-19.942 0.312,-26.674l-12.465 0c0.125,3.802 0.25,7.666 0.25,13.337 0,3.678 -0.125,9.224 -0.125,13.649 0,12.465 6.169,20.629 21.751,20.629 15.58,0 21.687,-8.164 21.687,-20.629 0,-4.425 -0.124,-9.971 -0.124,-13.649 0,-5.671 0.124,-9.535 0.249,-13.337l-12.464 0zm32.998 22.748c0,-4.176 0,-8.476 0,-12.838 2.993,-0.125 7.354,-0.187 9.099,-0.187 5.92,0 8.726,1.183 8.726,6.606 0,4.363 -2.493,6.544 -7.541,6.544 -4.302,-0.062 -8.164,-0.062 -10.284,-0.125zm18.698 5.609c7.789,-1.309 10.906,-5.671 10.906,-13.96 0,-9.474 -6.669,-14.397 -18.074,-14.397l-23.495 0c0.125,6.732 0.186,13.462 0.186,23.372 0,9.971 -0.124,16.578 -0.186,23.37l12.651 0c-0.312,-3.615 -0.499,-8.85 -0.561,-14.833 4.488,-0.062 6.108,-0.062 9.161,-0.062 4.489,0 5.547,1.246 7.603,8.788 1.434,5.484 1.621,6.107 3.616,6.107l11.778 0c-0.748,-1.994 -1.932,-5.734 -3.241,-9.659 -1.993,-5.984 -4.299,-7.667 -10.344,-8.414l0 -0.312zm34.93 -13.399c1.31,-4.052 2.182,-6.918 2.868,-9.037 0.684,2.119 1.495,5.048 2.804,8.85 1.308,4.113 2.865,9.098 4.238,13.836 -2.555,0.062 -5.173,0.062 -7.104,0.062 -1.872,0 -4.427,0 -6.919,-0.062l4.113 -13.649zm28.794 31.784c-4.799,-11.904 -14.023,-39.948 -16.33,-46.742l-18.758 0c-2.181,6.732 -11.467,35.088 -15.955,46.742l12.901 0c0.436,-1.807 1.434,-5.235 2.618,-9.348 3.427,0 6.979,0 9.472,0 2.681,0 6.233,0 9.722,0 1.186,4.363 2.12,7.791 2.369,9.348l13.961 0zm75.503 0c-0.249,-6.731 -0.312,-13.524 -0.312,-23.433 0,-10.221 0.063,-17.201 0.187,-23.309l-14.397 0c-1.932,4.55 -5.546,13.711 -9.161,22.811 -0.873,2.056 -1.808,4.611 -2.68,7.166l-0.186 0c-0.811,-2.617 -1.746,-5.172 -2.618,-7.229 -3.927,-9.162 -7.23,-18.135 -9.224,-22.748l-15.705 0c0.125,6.108 0.125,13.088 0.125,23.309 0,9.909 0,16.702 -0.25,23.433l10.72 0c-0.126,-8.538 -0.313,-15.331 -0.313,-24.68 -0.062,-3.614 -0.248,-7.166 -0.373,-10.719l0.25 -0.062c0.996,3.365 2.118,6.98 3.364,9.909l10.345 25.552 5.237 0 10.096 -24.929c1.183,-2.742 2.307,-6.481 3.365,-10.096l0.248 0c-0.186,3.553 -0.372,7.354 -0.372,10.595 -0.063,9.224 -0.125,15.83 -0.438,24.43l12.092 0zm39.854 -46.742c0.124,6.669 0.248,19.757 0.248,26.674 0,7.043 -2.617,10.097 -9.348,10.097 -6.917,0 -9.971,-3.054 -9.971,-10.097 0,-6.917 0.062,-19.942 0.311,-26.674l-12.464 0c0.125,3.802 0.25,7.666 0.25,13.337 0,3.678 -0.125,9.224 -0.125,13.649 0,12.465 6.17,20.629 21.751,20.629 15.581,0 21.688,-8.164 21.688,-20.629 0,-4.425 -0.124,-9.971 -0.124,-13.649 0,-5.671 0.124,-9.535 0.248,-13.337l-12.464 0zm53.69 0c0.249,4.114 0.499,13.586 0.499,21.564 0,3.428 0.249,7.105 0.56,10.781 -1.059,-2.866 -2.493,-5.796 -3.989,-8.288 -5.484,-9.099 -13.648,-20.754 -15.269,-24.057l-14.52 0c0.187,5.983 0.187,13.462 0.187,23.372 0,9.971 -0.125,17.2 -0.187,23.37l11.093 0c-0.187,-3.178 -0.187,-11.031 -0.249,-22.498 -0.062,-3.677 -0.25,-7.479 -0.623,-11.654l0.062 0c1.246,3.178 2.741,6.356 4.613,9.472 5.981,9.037 13.461,20.131 15.767,24.68l12.776 0c-0.125,-6.107 -0.125,-13.087 -0.125,-23.433 0,-9.91 0.125,-18.386 0.187,-23.309l-10.782 0zm31.876 46.742c-0.186,-6.855 -0.186,-13.524 -0.186,-23.433 0,-9.972 0,-16.702 0.186,-23.309l-12.401 0c0.187,6.732 0.187,13.399 0.187,23.372 0,9.909 0,16.578 -0.187,23.37l12.401 0zm38.796 -27.921c1.994,-0.062 3.802,-0.062 5.797,-0.062 1.931,0 3.987,0 5.983,0.062 0.062,-0.996 0.124,-1.994 0.124,-2.929 0,-9.036 -6.233,-16.639 -21.065,-16.639 -15.519,0 -23.372,8.725 -23.372,23.932 0,16.64 8.788,24.305 23.372,24.305 13.897,0 21.251,-7.167 21.251,-17.949 0,-0.622 -0.062,-1.184 0,-1.807 -2.056,0.062 -4.113,0.062 -6.107,0.062 -1.933,0 -3.865,0 -5.858,-0.062l0 1.06c0,4.736 -2.868,7.852 -9.35,7.852 -7.29,0 -10.844,-3.677 -10.844,-13.773 0,-9.848 3.366,-12.9 10.409,-12.963 6.295,0 9.66,1.994 9.66,7.977l0 0.934zm31.003 27.921c-0.185,-6.855 -0.185,-13.524 -0.185,-23.433 0,-9.972 0,-16.702 0.185,-23.309l-12.402 0c0.187,6.732 0.187,13.399 0.187,23.372 0,9.909 0,16.578 -0.187,23.37l12.402 0zm28.076 -22.249c-2.866,0 -5.483,-0.062 -7.103,-0.062 0,-4.425 0,-9.099 0,-13.961 2.43,-0.062 5.92,-0.125 7.478,-0.125 6.731,0 9.597,1.871 9.597,6.857 0,5.359 -2.555,7.291 -9.972,7.291zm-19.444 -24.493c0.249,6.357 0.311,13.462 0.311,23.372 0,9.971 -0.062,16.639 -0.311,23.37l12.9 0c-0.249,-3.241 -0.373,-7.291 -0.435,-11.904 3.489,0.125 5.733,0.125 9.161,0.125 12.838,0 19.757,-5.92 19.757,-17.575 0,-12.527 -7.168,-17.388 -19.571,-17.388l-21.812 0zm61.917 14.958c1.308,-4.052 2.181,-6.918 2.866,-9.037 0.686,2.119 1.497,5.048 2.804,8.85 1.309,4.113 2.868,9.098 4.239,13.836 -2.555,0.062 -5.173,0.062 -7.105,0.062 -1.869,0 -4.425,0 -6.917,-0.062l4.113 -13.649zm28.792 31.784c-4.797,-11.904 -14.023,-39.948 -16.328,-46.742l-18.759 0c-2.182,6.732 -11.468,35.088 -15.954,46.742l12.9 0c0.437,-1.807 1.434,-5.235 2.618,-9.348 3.428,0 6.98,0 9.473,0 2.679,0 6.231,0 9.722,0 1.184,4.363 2.118,7.791 2.368,9.348l13.96 0zm3.334 -46.742c0.187,4.425 0.187,12.278 0.187,23.372 0,9.971 -0.187,19.506 -0.187,23.37l30.6 0c0,-1.807 -0.062,-3.615 -0.062,-5.484 0,-1.869 0.062,-3.678 0.062,-5.485 -5.921,0.188 -13.211,0.188 -18.385,0.188 -0.062,-3.616 -0.062,-8.289 -0.062,-12.714 0,-10.595 0.124,-19.694 0.31,-23.247l-12.463 0z"/>
   <path class="fil2" d="M524.154 165.951c0.422,-11.762 17.703,-11.87 18.956,0l0 28.068 -18.956 0 0 -28.068zm-108.058 15.374l-10.574 -1.239 -17.388 -26.005 9.635 -4.643 9.636 6.707 -0.423 -12.172 9.429 -4.85 13.087 27.136 -3.352 8.461c7.959,-4.334 17.279,-7.845 27.438,-10.624l-7.96 -2.378 -11.103 -28.169 9.842 -2.887 8.066 8.046 2.092 -11.04 9.635 -2.994 8.591 8.259 1.361 -11.354 10.674 -2.888 6.913 29.308 -4.292 6.806c9.636,-1.956 19.265,-3.511 29.007,-4.435l-6.597 -5.881 -1.884 -30.031 10.681 0 4.606 10.423 5.76 -10.315 10.157 0.207 5.545 9.801 5.029 -9.909 10.574 0.209 -2.615 30.13 -6.597 4.85c9.843,0.824 19.578,2.371 29.322,4.743l-4.507 -7.221 7.014 -28.992 9.842 3.503 1.576 10.631 8.898 -8.045 10.159 3.195 1.461 10.523 8.067 -8.252 9.944 3.711 -10.99 27.759 -7.96 3.203c9.636,2.679 18.95,5.981 27.538,10.316l-3.038 -7.637 12.673 -28.068 9.629 4.643 -0.624 11.454 10.051 -5.774 9.529 4.126 -17.173 25.69 -10.996 1.655 -3.876 6.498c-1.747,-1.569 -8.117,-3.912 -12.952,2.392l-14.062 24.4 8.296 4.628 -6.304 10.574c-56.545,-29.407 -117.696,-30.539 -177.693,-0.516l-6.268 -10.38 8.081 -4.527 -14.07 -24.401c-4.763,-6.218 -11.088,-3.954 -12.938,-2.392l-3.602 -5.968zm165.655 -10.732c3.633,-11.211 20.296,-6.705 18.24,5.058l-7.708 27.015 -18.247 -5.058 7.715 -27.015zm-96.969 0c-3.633,-11.211 -20.295,-6.705 -18.24,5.058l7.709 27.015 18.247 -5.058 -7.716 -27.015z"/>
   <path class="fil2" d="M416.439 233.472l238.055 0 0 89.672 -238.055 0 0 -89.672zm238.055 92.08l0 93.392 -2.2 11.97 -3.167 11.147 -4.098 10.409 -4.957 9.663 -5.752 8.92 -6.483 8.159 -7.142 7.401 -7.745 6.64 -8.281 5.874 -8.733 5.102 -9.142 4.341 -9.469 3.567 -9.751 2.794 -9.943 2.028 -10.095 1.253 -10.164 0.473 -10.187 -0.301 -10.138 -1.074 -10.022 -1.863 -9.85 -2.643 -9.606 -3.439 -9.3 -4.22 -8.932 -5.014 -8.497 -5.81 -7.995 -6.612 -7.429 -7.408 -6.791 -8.202 -6.097 -9.006 -5.322 -9.806 -4.498 -10.604 -3.596 -11.396 -2.673 -12.316 0 -93.419 238.055 0zm-196.584 -50.029l5.546 -16.642 5.544 16.392 17.645 0 -14.871 10.43 5.801 16.893 -13.87 -10.926 -14.87 10.926 6.553 -16.391 -15.121 -10.682 17.643 0zm143.185 0l5.794 -16.642 5.044 16.392 17.896 0 -15.124 10.43 6.305 16.893 -13.87 -10.926 -14.872 10.926 6.054 -16.391 -14.873 -10.682 17.646 0zm-61.76 -13.166l3.273 0.744 3.024 1.491 2.772 1.74 2.271 2.235 2.02 2.486 1.512 2.98 1.002 2.981 0.259 3.474 -0.259 3.231 -1.002 3.231 -1.512 3.231 -2.02 2.477 -2.271 2.237 -2.772 1.741 -3.024 1.246 -3.273 0.988 0 3.726 16.133 0 0 6.21 -38.822 0 0 -6.21 15.625 0 0 -3.726 -3.274 -0.988 -2.773 -1.246 -2.772 -1.985 -2.27 -2.235 -1.763 -2.737 -1.512 -2.729 -0.759 -3.231 -0.502 -3.231 0.502 -3.224 0.759 -2.987 1.512 -2.98 1.763 -2.479 2.27 -2.235 2.772 -1.991 2.773 -1.491 3.274 -0.744 0 -3.476 -6.548 0.244 0 -5.709 20.918 0 0 5.709 -7.306 -0.244 0 3.476zm0 31.048l0 -25.582 2.263 0.744 1.769 1.239 1.763 0.997 1.511 1.741 1.011 1.733 1.009 1.992 0.502 1.984 0.251 2.235 -0.251 2.235 -0.502 2.235 -1.009 1.992 -1.011 1.741 -1.511 1.733 -1.763 0.996 -1.769 1.238 -2.263 0.747zm-7.064 -25.332l0 25.332 -2.013 -0.747 -1.762 -1.238 -1.771 -1.239 -1.511 -1.741 -1.261 -1.741 -0.751 -1.985 -0.51 -1.991 -0.501 -2.235 0.501 -1.984 0.51 -1.985 0.751 -1.991 1.261 -1.741 1.511 -1.734 1.771 -0.995 1.762 -1.24 2.013 -0.745zm-104.764 180.715c45.863,-6.914 72.778,7.013 109.427,9.8 61.252,-4.334 78.214,-18.053 106.069,-6.606 -2.579,5.99 -6.162,11.556 -10.468,17.96 -42.931,-6.504 -53.721,10.932 -96.962,11.04 -39.587,-0.516 -43.577,-15.158 -96.246,-11.548 -4.119,-4.937 -8.575,-13.046 -11.82,-20.646zm224.5 -29.745l-1.513 0 -1.26 0 -1.51 0 -1.519 0 -1.003 0 -1.512 0 -1.519 0 -223.84 0 0 -9.685 7.557 -3.231 7.565 -6.211 4.535 -4.219 5.801 -1.993 2.264 -2.979 1.771 -0.495 1.512 0.251 1.511 1.49 1.762 1.733 1.512 1.247 1.261 1.741 1.512 1.985 1.01 1.239 1.01 1.741 1.261 1.489 1.511 1.741 0.752 1.741 1.009 1.24 0.51 0.996 0.251 0.243 0.752 0.745 1.77 0.746 2.011 0 2.272 -1.491 1.261 -1.239 1.01 -1.741 1.253 -1.49 1.261 -1.741 1.011 -1.239 1.009 -1.49 0.252 -1.239 0.25 -0.996 0.759 -2.981 2.271 -1.991 2.772 -0.745 2.773 1.489 1.762 2.243 0.76 1.735 1.761 0.995 3.784 1.741 2.772 0.744 2.263 0.989 2.022 0.745 1.51 0.745 1.512 0.502 0.761 0.494 0.5 0.25 0.508 0 0.252 0 0.751 0.244 1.261 0 1.512 0 1.769 -0.244 1.262 -0.744 1.51 -1.247 1.261 -1.734 1.26 -1.991 1.765 -1.733 1.761 -1.993 1.511 -1.741 1.771 -1.489 1.51 -1.239 1.261 -0.746 0.251 -0.25 0.251 -0.244 0.251 -0.996 1.009 -0.744 0.76 -1.491 1.261 -1.246 1.261 -1.491 1.253 -1.239 1.261 -0.995 1.518 -0.989 1.763 -0.501 2.012 -0.746 2.021 -0.744 1.762 -0.244 1.513 -0.502 1.261 -0.243 0.251 0 0.508 0 1.761 0 2.272 -1.49 2.772 -3.732 0.753 -2.479 1.009 -2.235 0.509 -1.992 0.502 -1.74 0.251 -0.989 0.508 -0.996 0 -0.494 0 -0.252 0.501 -0.494 0.753 -1.246 1.261 -1.49 0.508 -1.984 0.501 -1.247 0.252 -1.734 0.258 -2.235 0.501 -1.991 0.25 -1.985 0.501 -1.741 0.259 -1.239 0 -0.501 0.251 -0.989 0.502 -2.98 1.51 -2.235 2.522 -0.745 1.512 0.494 1.01 0.746 0.759 1.238 0.752 1.491 0.251 1.246 0.258 1.24 0.25 1.49 0 0.744 0 1.491 0.252 2.235 0 2.737 0.25 3.223 0.251 2.737 0 2.729 0.508 2.737 0 1.239 0.252 1.49 0.251 1.74 0.25 2.235 0.25 2.237 0.761 2.234 0.249 1.741 0.251 1.239 0 0.502 0 0.243 0.509 0.502 0.752 0.988 1.01 0.502 1.512 0.745 1.769 0.989 1.513 1.991 1.002 2.486 1.01 2.479 0.509 1.74 0.25 0.746 0 0.494 1.004 0 2.02 -0.745 2.522 -0.745 1.761 -1.49 2.271 -1.24 2.271 -0.745 2.014 -0.25 0.76 0 4.033 -0.244 0.25 -0.25 0.753 -0.502 1.518 -0.745 2.264 -0.244 2.772 -0.25 2.02 -0.746 1.512 -1.489 1.761 -1.491 0.76 -0.744 1.261 -0.996 1.003 -0.494 1.519 -0.747 1.511 -0.25 1.512 -0.744 1.511 -0.244 1.261 0 1.512 0 1.512 -0.251 1.511 -0.251 1.77 -0.494 1.763 -0.745 1.762 -0.996 2.02 -1.239 2.013 -1.741 1.769 -1.49 1.512 -1.491 1.762 -1.74 1.512 -1.74 1.261 -1.24 1.51 -1.239 1.261 -1.247 -0.501 58.872z"/>
   <path class="fil2" d="M399.94 243.272c-3.696,17.121 -3.646,28.691 -23.375,27.416l0.072 -3.431c2.336,-15.99 14.7,-11.154 23.303,-23.985zm-23.533 0.794l0 173.143 -5.02 0 0 -16.484c-19.358,1.111 -19.337,-10.43 -23.011,-27.445 8.296,12.373 20.08,8.325 23.011,22.345l0 -23.211c-19.358,1.11 -19.337,-10.431 -23.011,-27.445 8.296,12.372 20.08,8.325 23.011,22.345l0 -23.225c-19.358,1.11 -19.337,-10.431 -23.011,-27.438 8.296,12.372 20.08,8.324 23.011,22.337l0 -23.197c-19.358,1.11 -19.337,-10.43 -23.011,-27.444 8.296,12.372 20.08,8.324 23.011,22.344l0 -23.225c-19.358,1.11 -19.337,-10.432 -23.011,-27.439 8.296,12.372 20.08,8.326 23.011,22.337l0 -23.21c-19.358,1.111 -19.337,-10.43 -23.011,-27.437 8.296,12.372 20.08,8.324 23.011,22.337l0 -10.195c-14.873,-17.021 -3.776,-31.571 2.405,-50.763 7.015,17.853 18.219,36.529 2.615,50.97zm23.533 140.777c-3.696,17.115 -3.646,28.692 -23.375,27.417l0.072 -3.44c2.336,-15.982 14.7,-11.146 23.303,-23.977zm0 -28.312c-3.696,17.115 -3.646,28.692 -23.375,27.417 0.028,-1.146 0.05,-2.293 0.072,-3.439 2.336,-15.982 14.7,-11.147 23.303,-23.978zm0 -28.318c-3.696,17.122 -3.646,28.692 -23.375,27.416 0.028,-1.139 0.05,-2.285 0.072,-3.431 2.336,-15.989 14.7,-11.154 23.303,-23.985zm0 -28.311c-3.696,17.114 -3.646,28.691 -23.375,27.416 0.028,-1.146 0.05,-2.293 0.072,-3.439 2.336,-15.982 14.7,-11.147 23.303,-23.977zm0 -28.318c-3.696,17.121 -3.646,28.69 -23.375,27.415 0.028,-1.139 0.05,-2.285 0.072,-3.432 2.336,-15.989 14.7,-11.153 23.303,-23.983z"/>
   <path class="fil2" d="M720.671 373.28c-3.68,17.044 -3.645,28.591 -23.11,27.439l0 16.49 -5.028 0 0 -173.143c-15.603,-14.441 -4.399,-33.117 2.614,-50.97 6.183,19.192 17.28,33.742 2.414,50.763l0 10.652c2.767,-14.563 14.73,-10.294 23.11,-22.794 -3.68,17.035 -3.645,28.583 -23.11,27.43l0 23.676c2.767,-14.564 14.73,-10.294 23.11,-22.796 -3.68,17.036 -3.645,28.585 -23.11,27.431l0 23.691c2.767,-14.571 14.73,-10.302 23.11,-22.802 -3.68,17.042 -3.645,28.591 -23.11,27.437l0 23.662c2.767,-14.564 14.73,-10.295 23.11,-22.795 -3.68,17.036 -3.645,28.583 -23.11,27.43l0 23.691c2.767,-14.572 14.73,-10.301 23.11,-22.803 -3.68,17.043 -3.645,28.591 -23.11,27.438l0 23.677c2.767,-14.572 14.73,-10.302 23.11,-22.804zm-51.564 -130.008c3.697,17.121 3.647,28.691 23.376,27.416l-0.072 -3.431c-2.334,-15.99 -14.7,-11.154 -23.304,-23.985zm0 28.312c3.697,17.121 3.647,28.69 23.376,27.415 -0.022,-1.139 -0.043,-2.285 -0.072,-3.432 -2.334,-15.989 -14.7,-11.153 -23.304,-23.983zm0 28.318c3.697,17.114 3.647,28.691 23.376,27.416 -0.022,-1.146 -0.043,-2.293 -0.072,-3.439 -2.334,-15.982 -14.7,-11.147 -23.304,-23.977zm0 28.311c3.697,17.122 3.647,28.692 23.376,27.416 -0.022,-1.139 -0.043,-2.285 -0.072,-3.431 -2.334,-15.989 -14.7,-11.154 -23.304,-23.985zm0 28.318c3.697,17.115 3.647,28.692 23.376,27.417 -0.022,-1.146 -0.043,-2.293 -0.072,-3.439 -2.334,-15.982 -14.7,-11.147 -23.304,-23.978zm0 28.312c3.697,17.115 3.647,28.692 23.376,27.417l-0.072 -3.44c-2.334,-15.982 -14.7,-11.146 -23.304,-23.977z"/>
   <path class="fil2" d="M741.272 560.594c23.982,1.379 45.328,-3.183 65.037,-11.427l-11.092 -14.656 11.343 -22.356c-35,13.795 -72.761,11.39 -108.898,3.478l0 35.769c8.315,3.781 18.411,5.68 27.477,6.956 4.719,1.744 11.038,1.609 16.133,2.236zm-403.015 3.04c-23.984,1.74 -45.328,-2.499 -65.038,-10.446l11.091 -14.823 -11.344 -22.186c35.001,13.268 72.763,10.293 108.899,1.836l0 35.769c-8.313,3.907 -18.41,5.957 -27.476,7.37 -4.72,1.816 -11.039,1.776 -16.132,2.48zm44.532 -16.508c-0.653,-7.57 1.276,-26.041 1.276,-33.698 -4.965,-3.757 -7.168,-7.198 -3.483,-11.368 -0.418,-0.405 -1.025,-0.815 -1.442,-1.221 -5.825,6.318 -0.897,10.108 1.689,13.684 -5.87,3.705 -13.324,4.199 -20.107,4.969 -3.327,-10.959 -3.087,-20.307 5.32,-25.763 12.136,-10.216 18.018,-1.042 24.506,8.89 14.619,24.593 47.315,67.997 148.343,74.674 97.558,-8.094 131.996,-52.059 146.614,-76.874 6.488,-10.028 15.845,-19.345 27.98,-9.311 8.407,5.329 8.646,14.673 5.32,25.683 -6.783,-0.668 -14.235,-1.051 -20.107,-4.665 2.587,-3.616 7.516,-7.481 1.689,-13.71 -0.418,0.412 -1.022,0.83 -1.442,1.243 3.686,4.113 1.483,7.587 -3.482,11.421 0,7.657 0.192,25.269 -0.462,32.848 -39.737,49.204 -81.93,65.444 -154.215,71.346 -0.326,-0.003 -0.652,-0.01 -0.978,-0.014 -0.016,0 -0.033,0 -0.05,0 -0.337,0.01 -0.677,0.022 -1.017,0.03 -69.569,-2.908 -116.323,-21.753 -155.952,-68.164z"/>
   <path class="fil2" d="M738.546 509.674c23.983,1.379 45.327,-3.183 65.038,-11.427l-11.092 -14.656 11.343 -22.356c-35,13.795 -72.762,11.391 -108.898,3.477l0 35.771c8.314,3.781 18.41,5.679 27.476,6.956 4.72,1.743 11.039,1.609 16.133,2.235zm-425.007 3.478c22.678,0 45.389,-1.528 66.802,-9.44l0.252 -38.503c-26.945,8.851 -55.25,11.369 -83.438,8.447 -7.613,-1.766 -14.597,-3.401 -21.932,-6.21 2.349,9.257 4.443,15.573 11.092,22.853 -5.972,2.941 -8.989,8.825 -10.84,14.904 12.314,4.47 25.049,6.599 38.064,7.949zm213.765 56.139c22.176,0 42.815,-1.478 64.028,-8.446 24.81,-8.503 47.034,-19.521 65.793,-38.005 7.07,-6.193 12.283,-13.844 18.906,-20.369 4.933,-6.807 9.921,-12.764 13.107,-20.619 2.897,-7.136 3.781,-12.96 3.781,-20.617 8.554,-12.174 15.931,-25.238 8.571,-39.744 -1.076,-0.797 -1.808,-1.784 -2.772,-2.734 0.418,-0.411 0.842,-0.83 1.261,-1.241 11.209,7.364 6.71,27.139 0.756,36.267l-4.034 6.707c5.869,3.616 13.634,4.3 20.419,4.968 4.222,-14.988 1.488,-26.819 -4.789,-40.739 -8.017,-10.531 -17.354,-12.761 -28.99,-5.465 -10.045,7.918 -12.526,14.398 -17.647,26.083l-0.502 0.249c0,0.645 0.251,1.103 0.251,1.738 -12.682,30.549 -33.989,53.952 -63.019,70.299l-15.378 7.204c-20.102,6.809 -37.74,9.309 -58.987,8.694 -29.31,-1.699 -60.448,-12.803 -82.177,-32.79 -9.229,-8.527 -17.532,-16.785 -24.452,-27.324 -9.018,-12.59 -12.144,-27.444 -20.419,-40.49 -8.506,-12.574 -20.682,-20.809 -35.29,-12.172 -9.759,12.574 -11.345,24.825 -11.345,40.242 0.781,3.843 0.559,5.27 3.529,8.197l20.923 -5.961c-5.055,-11.831 -13.811,-30.247 -4.284,-41.981 0.733,-0.724 1.436,-1.132 2.015,-1.988 0.564,0 0.742,-0.007 1.26,0.249l-2.773 4.72c-4.159,12.978 -1.8,23.334 4.791,35.025 0.677,2.096 2.106,3.576 2.783,5.673 -2.174,12.019 5.486,18.909 9.793,27.006 10.505,17.251 21.805,31.297 38.091,43.333 18.203,12.705 38.885,23.67 61.005,27.821 11.757,3.476 23.624,5.011 35.795,6.21z"/>
   <path class="fil1" d="M412.78 227.929l246.593 0 0 192.499c-7.839,42.551 -23.438,66.957 -60.967,88.879 -6.64,3.359 -12.449,5.809 -19.466,8.272l-10.049 2.88c-3.467,0.742 -6.962,1.391 -10.431,2.128l-10.405 1.293c-24.465,1.311 -39.325,-0.936 -62.365,-9.183 -43.669,-18.559 -64.253,-48.769 -74.131,-94.202l0 -192.565 1.221 -0.001zm244.151 2.466l-242.932 0 0 189.84 2.723 12.548 3.651 11.57 4.597 10.833 5.436 10.016 6.214 9.176 6.936 8.378 7.547 7.526 8.206 6.788 8.622 5.895 9.126 5.122 9.471 4.298 9.837 3.521 10.065 2.702 10.22 1.899 10.373 1.099 10.389 0.308 10.357 -0.482 10.396 -1.291 10.078 -2.054 10.011 -2.869 9.652 -3.636 9.306 -4.42 8.917 -5.208 8.462 -6.002 7.896 -6.772 7.276 -7.539 6.613 -8.322 5.853 -9.076 5.068 -9.88 4.16 -10.564 3.249 -11.436 2.225 -12.119 0 -189.849z"/>
   <path class="fil3" d="M401.863 558.426l15.325 -16.772 5.861 5.2c1.324,1.174 2.26,2.153 2.81,2.932 0.777,1.083 1.24,2.224 1.402,3.414 0.21,1.544 0.013,3.095 -0.607,4.653 -0.614,1.561 -1.606,3.085 -2.972,4.58 -1.164,1.275 -2.346,2.268 -3.551,2.982 -1.198,0.717 -2.329,1.192 -3.393,1.414 -1.061,0.226 -2.041,0.277 -2.938,0.145 -0.898,-0.125 -1.832,-0.445 -2.8,-0.957 -0.97,-0.516 -1.968,-1.23 -2.995,-2.141l-6.142 -5.45zm4.059 0.017l3.636 3.224c1.12,0.995 2.097,1.677 2.925,2.037 0.827,0.359 1.598,0.521 2.32,0.483 1.013,-0.049 2.08,-0.39 3.186,-1.013 1.112,-0.627 2.243,-1.567 3.403,-2.836 1.602,-1.754 2.539,-3.361 2.816,-4.819 0.278,-1.465 0.143,-2.723 -0.401,-3.785 -0.393,-0.765 -1.263,-1.743 -2.599,-2.928l-3.577 -3.175 -11.709 12.812zm38.739 29.913l10.039 -20.286 2.724 1.309 -10.04 20.285 -2.723 -1.308zm47.186 6.623l0.557 -2.586 9.491 1.972 -1.765 8.188c-1.704,0.842 -3.392,1.385 -5.065,1.642 -1.675,0.251 -3.325,0.205 -4.954,-0.135 -2.202,-0.462 -4.106,-1.344 -5.699,-2.65 -1.599,-1.302 -2.665,-2.933 -3.206,-4.878 -0.537,-1.949 -0.574,-4.009 -0.106,-6.179 0.464,-2.148 1.356,-4.056 2.67,-5.726 1.309,-1.676 2.922,-2.783 4.828,-3.329 1.905,-0.542 3.974,-0.581 6.207,-0.114 1.617,0.34 3.027,0.904 4.224,1.697 1.199,0.789 2.07,1.723 2.613,2.803 0.546,1.082 0.85,2.403 0.92,3.97l-2.831 0.164c-0.097,-1.196 -0.323,-2.168 -0.682,-2.915 -0.361,-0.746 -0.963,-1.41 -1.81,-1.99 -0.84,-0.579 -1.83,-0.99 -2.957,-1.227 -1.355,-0.283 -2.575,-0.324 -3.647,-0.124 -1.079,0.199 -1.987,0.566 -2.74,1.102 -0.748,0.536 -1.376,1.163 -1.885,1.887 -0.862,1.245 -1.469,2.665 -1.813,4.263 -0.426,1.968 -0.437,3.686 -0.034,5.156 0.402,1.47 1.193,2.661 2.369,3.58 1.175,0.917 2.497,1.532 3.974,1.842 1.289,0.27 2.595,0.285 3.919,0.053 1.331,-0.227 2.366,-0.553 3.116,-0.976l0.888 -4.112 -6.582 -1.378zm41.552 13.995l1.199 -22.538 3.026 0.155 -1.2 22.539 -3.025 -0.156zm42.824 -3.921l-3.854 -19.539 -7.406 1.418 -0.517 -2.615 17.82 -3.413 0.515 2.615 -7.439 1.425 3.854 19.539 -2.973 0.57zm45.88 -37.106l2.771 -1.216 5.383 11.916c0.935,2.068 1.441,3.819 1.514,5.249 0.073,1.428 -0.338,2.793 -1.234,4.101 -0.895,1.313 -2.352,2.407 -4.369,3.292 -1.957,0.859 -3.715,1.234 -5.258,1.111 -1.548,-0.116 -2.875,-0.689 -3.976,-1.719 -1.106,-1.027 -2.146,-2.63 -3.132,-4.815l-5.384 -11.915 2.768 -1.214 5.376 11.9c0.809,1.792 1.575,3.037 2.294,3.734 0.72,0.702 1.6,1.099 2.627,1.201 1.031,0.098 2.143,-0.113 3.332,-0.635 2.036,-0.893 3.281,-1.985 3.737,-3.278 0.451,-1.286 0.096,-3.223 -1.074,-5.811l-5.375 -11.901zm40.507 1.1l-15.91 -16.236 3.284 -3.124 15.162 7.785c1.408,0.728 2.459,1.277 3.141,1.657 -0.389,-0.769 -0.95,-1.916 -1.672,-3.441l-7.127 -15.047 2.935 -2.792 15.909 16.234 -2.101 2.001 -13.317 -13.589 8.53 18.145 -1.969 1.872 -18.307 -9.286 13.545 13.82 -2.103 2.001z"/>
   <path class="fil3" d="M393.848 489.372l16.554 -11.421 -4.33 -6.093 2.216 -1.529 10.414 14.657 -2.215 1.529 -4.348 -6.119 -16.553 11.421 -1.738 -2.445zm16.013 20.612l16.201 -15.964 11.712 11.542 -1.913 1.884 -9.57 -9.431 -4.96 4.888 8.962 8.832 -1.901 1.874 -8.962 -8.833 -5.516 5.434 9.949 9.803 -1.913 1.884 -12.089 -11.913zm24.885 22.682l13.141 -18.494 8.321 5.741c1.673,1.154 2.825,2.2 3.459,3.131 0.633,0.932 0.913,1.997 0.841,3.199 -0.08,1.202 -0.484,2.31 -1.205,3.326 -0.934,1.314 -2.145,2.12 -3.651,2.424 -1.498,0.305 -3.238,-0.042 -5.213,-1.038 0.439,0.765 0.72,1.415 0.844,1.955 0.261,1.155 0.362,2.451 0.315,3.882l-0.312 7.287 -3.125 -2.157 0.254 -5.562c0.062,-1.606 0.067,-2.873 0.011,-3.784 -0.047,-0.913 -0.174,-1.615 -0.38,-2.104 -0.203,-0.494 -0.463,-0.916 -0.779,-1.276 -0.244,-0.252 -0.682,-0.598 -1.324,-1.041l-2.88 -1.988 -5.835 8.212 -2.482 -1.713zm9.823 -8.618l5.338 3.685c1.132,0.781 2.107,1.279 2.909,1.488 0.809,0.21 1.557,0.175 2.25,-0.104 0.693,-0.279 1.251,-0.717 1.677,-1.315 0.62,-0.874 0.811,-1.813 0.565,-2.823 -0.24,-1.007 -1.06,-1.99 -2.454,-2.952l-5.938 -4.097 -4.347 6.118zm20.999 26.107l8.584 -20.932 15.357 6.113 -1.014 2.473 -12.547 -4.996 -2.628 6.408 11.751 4.679 -1.007 2.457 -11.752 -4.679 -2.923 7.125 13.044 5.193 -1.013 2.471 -15.852 -6.312zm32.446 3.569l2.854 0.296c-0.089,1.134 0.042,2.102 0.389,2.908 0.347,0.804 0.988,1.522 1.922,2.156 0.935,0.634 2.044,1.072 3.321,1.317 1.136,0.216 2.17,0.243 3.104,0.08 0.936,-0.169 1.674,-0.5 2.212,-0.996 0.539,-0.502 0.878,-1.09 1.013,-1.776 0.137,-0.697 0.052,-1.34 -0.257,-1.941 -0.306,-0.598 -0.896,-1.162 -1.766,-1.691 -0.56,-0.349 -1.819,-0.965 -3.79,-1.851 -1.967,-0.886 -3.328,-1.624 -4.068,-2.215 -0.966,-0.758 -1.631,-1.603 -1.997,-2.524 -0.362,-0.922 -0.443,-1.89 -0.241,-2.912 0.219,-1.115 0.746,-2.1 1.58,-2.947 0.838,-0.852 1.926,-1.409 3.261,-1.678 1.341,-0.264 2.761,-0.254 4.275,0.037 1.671,0.32 3.084,0.863 4.258,1.641 1.168,0.769 1.994,1.736 2.478,2.894 0.477,1.157 0.618,2.394 0.415,3.705l-2.896 -0.335c0.118,-1.429 -0.19,-2.591 -0.934,-3.472 -0.744,-0.888 -1.977,-1.494 -3.705,-1.824 -1.801,-0.345 -3.175,-0.271 -4.13,0.221 -0.95,0.493 -1.519,1.197 -1.699,2.111 -0.158,0.8 0.006,1.511 0.486,2.134 0.475,0.626 1.862,1.438 4.177,2.437 2.312,1.006 3.88,1.795 4.701,2.369 1.19,0.849 2.01,1.788 2.454,2.815 0.444,1.033 0.546,2.145 0.31,3.333 -0.232,1.18 -0.792,2.226 -1.683,3.136 -0.891,0.91 -2.036,1.532 -3.433,1.87 -1.398,0.332 -2.899,0.344 -4.502,0.037 -2.037,-0.39 -3.687,-1.006 -4.943,-1.858 -1.263,-0.846 -2.169,-1.93 -2.721,-3.257 -0.55,-1.321 -0.7,-2.731 -0.445,-4.22zm31.914 0.539c-0.133,-3.746 0.781,-6.713 2.749,-8.9 1.966,-2.187 4.562,-3.339 7.792,-3.451 2.113,-0.071 4.039,0.361 5.769,1.297 1.73,0.939 3.075,2.281 4.03,4.031 0.952,1.746 1.466,3.753 1.545,6.007 0.083,2.29 -0.309,4.355 -1.183,6.188 -0.874,1.841 -2.154,3.252 -3.838,4.241 -1.688,0.989 -3.522,1.515 -5.51,1.584 -2.16,0.074 -4.101,-0.369 -5.835,-1.341 -1.737,-0.966 -3.07,-2.325 -4.007,-4.071 -0.938,-1.739 -1.441,-3.605 -1.512,-5.585zm3.126 -0.061c0.097,2.721 0.914,4.834 2.451,6.349 1.542,1.514 3.431,2.232 5.671,2.155 2.28,-0.078 4.13,-0.93 5.545,-2.563 1.416,-1.631 2.076,-3.9 1.973,-6.805 -0.065,-1.833 -0.44,-3.425 -1.12,-4.775 -0.676,-1.349 -1.637,-2.378 -2.874,-3.093 -1.241,-0.709 -2.613,-1.041 -4.122,-0.989 -2.149,0.075 -3.968,0.863 -5.463,2.371 -1.494,1.503 -2.182,3.957 -2.061,7.35zm5.44 -13.21l1.927 -4.379 3.685 -0.128 -3.282 4.427 -2.33 0.08zm30.112 21.476l-5.929 -21.808 8.347 -2.205c1.468,-0.387 2.611,-0.612 3.421,-0.679 1.136,-0.11 2.139,-0.01 3.013,0.298 0.868,0.305 1.652,0.854 2.344,1.634 0.694,0.786 1.185,1.717 1.479,2.799 0.504,1.853 0.335,3.585 -0.512,5.185 -0.853,1.596 -2.84,2.813 -5.969,3.639l-5.678 1.499 2.411 8.866 -2.927 0.772zm-0.183 -12.213l5.724 -1.51c1.891,-0.5 3.142,-1.2 3.746,-2.106 0.604,-0.904 0.737,-1.984 0.394,-3.244 -0.249,-0.913 -0.694,-1.634 -1.338,-2.16 -0.647,-0.527 -1.375,-0.791 -2.2,-0.797 -0.529,0.005 -1.453,0.178 -2.784,0.529l-5.662 1.495 2.12 7.793zm26.911 -6.54c-1.666,-3.369 -2.055,-6.445 -1.161,-9.232 0.893,-2.786 2.789,-4.88 5.695,-6.276 1.897,-0.912 3.838,-1.288 5.803,-1.128 1.97,0.164 3.753,0.852 5.346,2.069 1.591,1.212 2.889,2.84 3.892,4.867 1.02,2.06 1.515,4.103 1.473,6.129 -0.04,2.03 -0.626,3.833 -1.756,5.411 -1.133,1.581 -2.591,2.796 -4.38,3.655 -1.942,0.934 -3.899,1.307 -5.882,1.114 -1.986,-0.186 -3.767,-0.892 -5.343,-2.111 -1.575,-1.215 -2.804,-2.717 -3.687,-4.498zm2.832 -1.308c1.21,2.447 2.829,4.051 4.86,4.817 2.033,0.765 4.054,0.665 6.068,-0.303 2.053,-0.985 3.39,-2.505 4.01,-4.563 0.62,-2.058 0.286,-4.398 -1.006,-7.009 -0.816,-1.65 -1.817,-2.952 -2.994,-3.914 -1.177,-0.96 -2.477,-1.516 -3.902,-1.674 -1.428,-0.149 -2.818,0.098 -4.175,0.75 -1.934,0.928 -3.269,2.378 -4.011,4.355 -0.747,1.972 -0.361,4.489 1.15,7.541zm35.508 -7.191l-13.788 -18.031 2.425 -1.801 12.161 15.903 9.009 -6.691 1.628 2.129 -11.435 8.491zm23.471 -19.688l-16.758 -15.398 2.066 -2.183 16.756 15.397 -2.064 2.184zm9.308 -21.058l1.393 -2.474c1.025,0.523 1.978,0.783 2.867,0.783 0.887,0.001 1.808,-0.3 2.766,-0.9 0.957,-0.601 1.798,-1.435 2.527,-2.499 0.648,-0.945 1.076,-1.872 1.288,-2.783 0.207,-0.915 0.188,-1.714 -0.065,-2.396 -0.259,-0.685 -0.675,-1.222 -1.265,-1.613 -0.597,-0.398 -1.23,-0.572 -1.913,-0.523 -0.678,0.042 -1.435,0.357 -2.269,0.937 -0.547,0.374 -1.614,1.274 -3.212,2.718 -1.594,1.437 -2.815,2.382 -3.658,2.824 -1.084,0.58 -2.133,0.852 -3.138,0.824 -1,-0.032 -1.938,-0.337 -2.813,-0.918 -0.955,-0.635 -1.67,-1.497 -2.135,-2.587 -0.469,-1.092 -0.565,-2.296 -0.294,-3.612 0.279,-1.319 0.843,-2.605 1.704,-3.864 0.952,-1.39 2.014,-2.46 3.196,-3.221 1.177,-0.759 2.402,-1.13 3.673,-1.116 1.267,0.019 2.478,0.373 3.623,1.071l-1.444 2.495c-1.288,-0.665 -2.495,-0.841 -3.61,-0.509 -1.119,0.328 -2.166,1.211 -3.15,2.648 -1.027,1.499 -1.494,2.775 -1.408,3.833 0.089,1.055 0.527,1.846 1.309,2.367 0.686,0.455 1.413,0.583 2.183,0.391 0.77,-0.185 2.072,-1.128 3.91,-2.836 1.842,-1.703 3.19,-2.818 4.048,-3.338 1.258,-0.748 2.457,-1.125 3.589,-1.127 1.138,0.002 2.217,0.344 3.235,1.021 1.011,0.672 1.769,1.588 2.27,2.752 0.503,1.165 0.636,2.446 0.405,3.846 -0.235,1.397 -0.81,2.765 -1.723,4.098 -1.16,1.695 -2.381,2.952 -3.667,3.757 -1.284,0.815 -2.651,1.213 -4.106,1.196 -1.448,-0.017 -2.824,-0.432 -4.116,-1.245z"/>
   <path class="fil3" d="M289.976 545.357l2.841 0.393c-0.128,1.13 -0.032,2.101 0.284,2.918 0.319,0.816 0.933,1.554 1.844,2.221 0.912,0.665 2.005,1.14 3.272,1.429 1.128,0.256 2.159,0.318 3.099,0.187 0.939,-0.138 1.689,-0.441 2.245,-0.919 0.556,-0.483 0.915,-1.059 1.074,-1.74 0.163,-0.691 0.101,-1.336 -0.189,-1.947 -0.283,-0.608 -0.853,-1.192 -1.701,-1.751 -0.55,-0.368 -1.785,-1.026 -3.724,-1.979 -1.933,-0.953 -3.265,-1.736 -3.986,-2.353 -0.937,-0.79 -1.57,-1.657 -1.905,-2.59 -0.329,-0.933 -0.374,-1.903 -0.138,-2.918 0.26,-1.105 0.821,-2.072 1.684,-2.89 0.867,-0.821 1.974,-1.342 3.318,-1.564 1.347,-0.217 2.766,-0.158 4.268,0.185 1.658,0.376 3.051,0.968 4.197,1.783 1.138,0.811 1.93,1.804 2.372,2.978 0.436,1.172 0.533,2.414 0.284,3.716l-2.881 -0.434c0.169,-1.423 -0.098,-2.595 -0.81,-3.502 -0.711,-0.912 -1.924,-1.558 -3.638,-1.948 -1.787,-0.408 -3.161,-0.38 -4.134,0.078 -0.968,0.459 -1.559,1.145 -1.773,2.051 -0.185,0.793 -0.045,1.51 0.412,2.149 0.451,0.642 1.811,1.5 4.086,2.579 2.274,1.084 3.813,1.925 4.612,2.527 1.161,0.89 1.947,1.855 2.353,2.897 0.406,1.048 0.467,2.162 0.192,3.339 -0.274,1.173 -0.871,2.197 -1.792,3.077 -0.925,0.879 -2.09,1.46 -3.498,1.749 -1.407,0.284 -2.908,0.244 -4.498,-0.117 -2.021,-0.46 -3.648,-1.133 -4.872,-2.026 -1.232,-0.889 -2.098,-2.002 -2.604,-3.348 -0.502,-1.338 -0.604,-2.753 -0.294,-4.23zm45.215 -11.051l3.033 -0.104 0.462 13.034c0.08,2.263 -0.118,4.074 -0.592,5.426 -0.476,1.351 -1.375,2.465 -2.705,3.347 -1.328,0.887 -3.094,1.364 -5.3,1.439 -2.143,0.074 -3.914,-0.228 -5.299,-0.91 -1.391,-0.679 -2.402,-1.7 -3.032,-3.061 -0.635,-1.362 -0.989,-3.232 -1.074,-5.621l-0.462 -13.035 3.027 -0.105 0.462 13.02c0.069,1.959 0.305,3.397 0.706,4.307 0.4,0.918 1.067,1.61 1.98,2.084 0.918,0.473 2.03,0.687 3.33,0.641 2.228,-0.076 3.799,-0.629 4.711,-1.659 0.908,-1.026 1.316,-2.954 1.215,-5.784l-0.462 -13.019zm19.281 20.509l-4.371 -22.154 8.439 -1.615c1.717,-0.33 3.139,-0.366 4.261,-0.121 1.131,0.248 2.079,0.785 2.85,1.607 0.767,0.815 1.259,1.733 1.46,2.754 0.187,0.944 0.1,1.887 -0.258,2.822 -0.353,0.935 -1.008,1.762 -1.959,2.48 1.438,0.131 2.611,0.603 3.53,1.406 0.92,0.809 1.506,1.857 1.761,3.148 0.206,1.036 0.171,2.044 -0.099,3.021 -0.269,0.978 -0.683,1.769 -1.242,2.38 -0.558,0.61 -1.31,1.128 -2.245,1.565 -0.935,0.436 -2.119,0.791 -3.554,1.065l-8.573 1.642zm0.443 -13.414l4.863 -0.931c1.315,-0.252 2.246,-0.52 2.787,-0.801 0.711,-0.367 1.208,-0.843 1.489,-1.43 0.281,-0.59 0.348,-1.272 0.194,-2.045 -0.143,-0.733 -0.451,-1.349 -0.917,-1.839 -0.471,-0.493 -1.06,-0.776 -1.758,-0.856 -0.708,-0.079 -1.868,0.037 -3.485,0.346l-4.493 0.861 1.32 6.695zm2.02 10.229l5.595 -1.072c0.962,-0.184 1.631,-0.35 2.004,-0.491 0.663,-0.255 1.193,-0.566 1.598,-0.938 0.405,-0.367 0.702,-0.85 0.894,-1.445 0.185,-0.597 0.215,-1.245 0.077,-1.951 -0.163,-0.827 -0.52,-1.502 -1.07,-2.034 -0.549,-0.527 -1.23,-0.84 -2.044,-0.941 -0.807,-0.097 -1.93,-0.01 -3.359,0.263l-5.197 0.996 1.502 7.613z"/>
   <path class="fil3" d="M711.595 551.631l4.762 -22.076 7.715 1.616c1.742,0.365 3.049,0.751 3.921,1.155 1.222,0.557 2.202,1.315 2.947,2.266 0.964,1.234 1.582,2.673 1.836,4.328 0.258,1.655 0.174,3.464 -0.252,5.432 -0.361,1.676 -0.879,3.12 -1.56,4.331 -0.676,1.212 -1.416,2.181 -2.222,2.897 -0.805,0.718 -1.627,1.244 -2.472,1.573 -0.841,0.335 -1.811,0.517 -2.909,0.55 -1.104,0.033 -2.329,-0.095 -3.68,-0.378l-8.086 -1.694zm3.526 -1.985l4.782 1.002c1.477,0.309 2.669,0.419 3.566,0.323 0.9,-0.097 1.65,-0.337 2.256,-0.726 0.854,-0.542 1.603,-1.362 2.245,-2.446 0.644,-1.091 1.148,-2.463 1.509,-4.134 0.497,-2.307 0.494,-4.161 -0.007,-5.561 -0.503,-1.405 -1.259,-2.428 -2.268,-3.079 -0.728,-0.47 -1.98,-0.888 -3.735,-1.256l-4.711 -0.987 -3.637 16.864zm29.939 6.437l-0.799 -22.556 16.546 -0.569 0.095 2.663 -13.519 0.465 0.244 6.906 12.662 -0.436 0.094 2.647 -12.663 0.436 0.273 7.677 14.052 -0.484 0.095 2.664 -17.08 0.587zm32.326 -2.896l-3.582 -22.291 2.991 -0.467 3.584 22.292 -2.993 0.466z"/>
   <path class="fil3" d="M297.335 505.365l-2.77 -0.48 3.113 -17.369c-0.78,0.51 -1.764,0.983 -2.958,1.421 -1.199,0.437 -2.255,0.738 -3.173,0.899l0.472 -2.63c1.678,-0.45 3.191,-1.083 4.533,-1.9 1.338,-0.824 2.339,-1.668 2.996,-2.545l1.78 0.309 -3.993 22.295zm17.01 -10.699c-1.162,-0.439 -2.015,-1.053 -2.567,-1.845 -0.545,-0.786 -0.812,-1.726 -0.793,-2.812 0.03,-1.642 0.652,-3.007 1.871,-4.104 1.221,-1.097 2.82,-1.631 4.808,-1.598 2.002,0.035 3.602,0.634 4.804,1.8 1.194,1.165 1.779,2.565 1.749,4.208 -0.017,1.044 -0.312,1.949 -0.881,2.715 -0.574,0.762 -1.426,1.346 -2.569,1.746 1.393,0.476 2.453,1.218 3.171,2.239 0.714,1.015 1.061,2.223 1.035,3.614 -0.034,1.931 -0.756,3.536 -2.161,4.825 -1.41,1.288 -3.246,1.912 -5.507,1.873 -2.261,-0.038 -4.069,-0.726 -5.432,-2.067 -1.363,-1.34 -2.026,-2.996 -1.993,-4.963 0.027,-1.465 0.428,-2.686 1.202,-3.665 0.769,-0.974 1.859,-1.633 3.263,-1.966zm-0.483 -4.701c-0.019,1.065 0.318,1.943 0.999,2.631 0.687,0.689 1.588,1.046 2.702,1.064 1.083,0.019 1.979,-0.301 2.685,-0.961 0.706,-0.659 1.061,-1.478 1.078,-2.449 0.018,-1.018 -0.317,-1.874 -1.02,-2.579 -0.702,-0.706 -1.581,-1.067 -2.649,-1.086 -1.071,-0.018 -1.969,0.308 -2.69,0.968 -0.721,0.665 -1.088,1.472 -1.105,2.412zm-1.091 10.397c-0.015,0.787 0.165,1.557 0.531,2.297 0.365,0.748 0.921,1.328 1.665,1.746 0.743,0.417 1.547,0.636 2.41,0.651 1.345,0.023 2.462,-0.384 3.352,-1.224 0.889,-0.835 1.345,-1.908 1.369,-3.222 0.023,-1.332 -0.405,-2.442 -1.29,-3.328 -0.887,-0.887 -2.009,-1.343 -3.365,-1.366 -1.322,-0.022 -2.424,0.389 -3.308,1.235 -0.884,0.851 -1.341,1.92 -1.364,3.211zm19.693 0.434l2.924 -0.499c0.344,1.393 0.941,2.406 1.796,3.048 0.861,0.642 1.85,0.916 2.97,0.819 1.35,-0.115 2.449,-0.716 3.289,-1.795 0.846,-1.085 1.196,-2.453 1.049,-4.105 -0.14,-1.574 -0.697,-2.775 -1.676,-3.608 -0.979,-0.833 -2.194,-1.186 -3.65,-1.06 -0.903,0.077 -1.698,0.351 -2.391,0.816 -0.692,0.466 -1.213,1.037 -1.571,1.716l-2.659 -0.108 1.184 -11.726 11.35 -0.977 0.236 2.635 -9.109 0.785 -0.697 6.14c1.287,-1.059 2.687,-1.654 4.191,-1.783 1.991,-0.172 3.73,0.364 5.222,1.605 1.492,1.243 2.335,2.93 2.524,5.063 0.181,2.033 -0.269,3.843 -1.339,5.427 -1.304,1.941 -3.222,3.022 -5.751,3.24 -2.079,0.179 -3.824,-0.245 -5.238,-1.277 -1.415,-1.033 -2.299,-2.485 -2.654,-4.356zm22.557 -2.569l2.851 -0.797c0.489,1.35 1.193,2.295 2.112,2.847 0.924,0.55 1.936,0.721 3.041,0.509 1.33,-0.254 2.358,-0.965 3.079,-2.123 0.726,-1.167 0.929,-2.563 0.607,-4.192 -0.305,-1.55 -0.986,-2.687 -2.048,-3.415 -1.063,-0.726 -2.308,-0.954 -3.744,-0.68 -0.889,0.17 -1.651,0.525 -2.29,1.059 -0.64,0.534 -1.098,1.155 -1.381,1.868l-2.658 0.166 -0.066 -11.783 11.185 -2.14 0.512 2.597 -8.976 1.717 -0.038 6.178c1.166,-1.185 2.494,-1.92 3.976,-2.204 1.965,-0.375 3.75,-0.022 5.366,1.059 1.617,1.082 2.632,2.673 3.047,4.775 0.396,2.005 0.142,3.851 -0.753,5.535 -1.093,2.065 -2.885,3.338 -5.378,3.815 -2.048,0.39 -3.828,0.149 -5.346,-0.732 -1.515,-0.881 -2.548,-2.234 -3.098,-4.059z"/>
   <path class="fil3" d="M715.62 501.196l-2.759 -0.528 3.419 -17.313c-0.789,0.496 -1.781,0.953 -2.981,1.37 -1.208,0.417 -2.269,0.701 -3.19,0.845l0.519 -2.622c1.687,-0.422 3.207,-1.028 4.567,-1.822 1.353,-0.801 2.369,-1.627 3.039,-2.493l1.776 0.339 -4.39 22.224zm17.474 -10.061c-1.144,-0.479 -1.974,-1.121 -2.497,-1.932 -0.518,-0.804 -0.751,-1.752 -0.694,-2.838 0.088,-1.64 0.758,-2.983 2.015,-4.037 1.258,-1.055 2.875,-1.534 4.863,-1.431 1.998,0.102 3.576,0.757 4.735,1.962 1.154,1.206 1.687,2.626 1.599,4.268 -0.055,1.043 -0.379,1.935 -0.976,2.682 -0.601,0.742 -1.473,1.296 -2.631,1.657 1.377,0.523 2.411,1.301 3.092,2.346 0.676,1.039 0.98,2.259 0.906,3.648 -0.103,1.929 -0.882,3.507 -2.331,4.746 -1.455,1.24 -3.311,1.801 -5.57,1.685 -2.26,-0.118 -4.042,-0.866 -5.356,-2.253 -1.316,-1.387 -1.919,-3.064 -1.816,-5.029 0.078,-1.463 0.523,-2.67 1.332,-3.622 0.804,-0.946 1.914,-1.567 3.329,-1.852zm-0.314 -4.716c-0.057,1.065 0.249,1.953 0.904,2.665 0.662,0.712 1.551,1.1 2.664,1.157 1.081,0.056 1.988,-0.234 2.716,-0.869 0.729,-0.636 1.114,-1.441 1.165,-2.411 0.054,-1.017 -0.251,-1.884 -0.93,-2.613 -0.676,-0.728 -1.542,-1.12 -2.607,-1.175 -1.072,-0.055 -1.979,0.24 -2.723,0.875 -0.744,0.639 -1.14,1.434 -1.189,2.371zm-1.461 10.354c-0.041,0.787 0.111,1.562 0.45,2.315 0.338,0.76 0.873,1.36 1.603,1.802 0.728,0.442 1.522,0.688 2.386,0.732 1.342,0.069 2.472,-0.298 3.391,-1.107 0.92,-0.804 1.414,-1.861 1.483,-3.172 0.072,-1.331 -0.318,-2.456 -1.171,-3.373 -0.855,-0.916 -1.959,-1.409 -3.314,-1.479 -1.32,-0.068 -2.436,0.305 -3.349,1.12 -0.915,0.821 -1.41,1.873 -1.479,3.162zm19.856 1.546l2.664 -0.524c0.361,1.219 0.891,2.077 1.594,2.575 0.702,0.491 1.554,0.688 2.563,0.584 0.858,-0.088 1.591,-0.36 2.197,-0.818 0.606,-0.454 1.08,-1.025 1.425,-1.716 0.351,-0.69 0.601,-1.603 0.765,-2.728 0.158,-1.131 0.183,-2.268 0.061,-3.411 -0.013,-0.12 -0.039,-0.307 -0.076,-0.546 -0.469,0.93 -1.157,1.724 -2.063,2.367 -0.912,0.648 -1.935,1.029 -3.06,1.144 -1.888,0.195 -3.557,-0.312 -5.005,-1.525 -1.45,-1.211 -2.291,-2.913 -2.526,-5.117 -0.243,-2.276 0.242,-4.173 1.456,-5.703 1.214,-1.529 2.849,-2.4 4.903,-2.613 1.479,-0.153 2.875,0.104 4.188,0.759 1.311,0.657 2.363,1.683 3.155,3.068 0.791,1.386 1.335,3.457 1.629,6.213 0.306,2.861 0.236,5.175 -0.213,6.942 -0.456,1.762 -1.258,3.149 -2.409,4.166 -1.157,1.017 -2.568,1.612 -4.25,1.785 -1.783,0.184 -3.287,-0.151 -4.523,-1.01 -1.233,-0.855 -2.058,-2.152 -2.475,-3.892zm10.397 -11.084c-0.169,-1.576 -0.727,-2.79 -1.682,-3.626 -0.958,-0.84 -2.032,-1.199 -3.236,-1.075 -1.24,0.129 -2.268,0.742 -3.085,1.835 -0.816,1.098 -1.14,2.44 -0.971,4.027 0.154,1.431 0.718,2.544 1.687,3.345 0.972,0.803 2.097,1.135 3.38,1.003 1.301,-0.135 2.314,-0.688 3.051,-1.668 0.744,-0.979 1.025,-2.259 0.856,-3.841zm22.86 11.089l-2.727 0.67 -4.337 -17.114c-0.501,0.778 -1.204,1.604 -2.113,2.482 -0.916,0.88 -1.756,1.578 -2.526,2.092l-0.657 -2.593c1.346,-1.083 2.465,-2.265 3.354,-3.55 0.884,-1.287 1.45,-2.46 1.687,-3.523l1.753 -0.431 5.566 21.967z"/>
   <polygon class="fil4" points="-0.236,917.795 215.764,917.795 215.764,939.986 -0.236,939.986 "/>
   <polygon class="fil5" points="215.764,917.795 431.764,917.795 431.764,939.986 215.764,939.986 "/>
   <polygon class="fil6" points="431.764,917.795 647.764,917.795 647.764,939.986 431.764,939.986 "/>
   <polygon class="fil7" points="647.764,917.795 863.764,917.795 863.764,939.986 647.764,939.986 "/>
   <polygon class="fil8" points="863.764,917.795 1079.764,917.795 1079.764,939.986 863.764,939.986 "/>
  </g>
 </g>
</svg>
